<mxfile host="Electron" agent="Mozilla/5.0 (Windows NT 10.0; Win64; x64) AppleWebKit/537.36 (KHTML, like Gecko) draw.io/24.7.17 Chrome/128.0.6613.36 Electron/32.0.1 Safari/537.36" version="24.7.17">
  <diagram name="Сторінка-1" id="dyQAO5MxhmNW5f2Xyf7_">
    <mxGraphModel dx="954" dy="657" grid="1" gridSize="10" guides="1" tooltips="1" connect="1" arrows="1" fold="1" page="1" pageScale="1" pageWidth="827" pageHeight="1169" math="0" shadow="0">
      <root>
        <mxCell id="0" />
        <mxCell id="1" parent="0" />
        <mxCell id="hAhiAMXTHetI9m2DxHTK-3" value="" style="edgeStyle=orthogonalEdgeStyle;rounded=0;orthogonalLoop=1;jettySize=auto;html=1;" edge="1" parent="1" source="hAhiAMXTHetI9m2DxHTK-1" target="hAhiAMXTHetI9m2DxHTK-2">
          <mxGeometry relative="1" as="geometry" />
        </mxCell>
        <mxCell id="hAhiAMXTHetI9m2DxHTK-1" value="&lt;font style=&quot;font-size: 20px;&quot;&gt;start&lt;/font&gt;" style="ellipse;whiteSpace=wrap;html=1;" vertex="1" parent="1">
          <mxGeometry x="360" y="110" width="120" height="80" as="geometry" />
        </mxCell>
        <mxCell id="hAhiAMXTHetI9m2DxHTK-5" value="" style="edgeStyle=orthogonalEdgeStyle;rounded=0;orthogonalLoop=1;jettySize=auto;html=1;" edge="1" parent="1" source="hAhiAMXTHetI9m2DxHTK-2" target="hAhiAMXTHetI9m2DxHTK-4">
          <mxGeometry relative="1" as="geometry" />
        </mxCell>
        <mxCell id="hAhiAMXTHetI9m2DxHTK-2" value="&lt;font style=&quot;font-size: 20px;&quot;&gt;int r,h&lt;/font&gt;" style="whiteSpace=wrap;html=1;" vertex="1" parent="1">
          <mxGeometry x="360" y="280" width="120" height="60" as="geometry" />
        </mxCell>
        <mxCell id="hAhiAMXTHetI9m2DxHTK-7" value="" style="edgeStyle=orthogonalEdgeStyle;rounded=0;orthogonalLoop=1;jettySize=auto;html=1;" edge="1" parent="1" source="hAhiAMXTHetI9m2DxHTK-4" target="hAhiAMXTHetI9m2DxHTK-6">
          <mxGeometry relative="1" as="geometry" />
        </mxCell>
        <mxCell id="hAhiAMXTHetI9m2DxHTK-4" value="&lt;font style=&quot;font-size: 20px;&quot;&gt;double S, V&lt;/font&gt;" style="whiteSpace=wrap;html=1;" vertex="1" parent="1">
          <mxGeometry x="360" y="420" width="120" height="60" as="geometry" />
        </mxCell>
        <mxCell id="hAhiAMXTHetI9m2DxHTK-9" value="" style="edgeStyle=orthogonalEdgeStyle;rounded=0;orthogonalLoop=1;jettySize=auto;html=1;" edge="1" parent="1" source="hAhiAMXTHetI9m2DxHTK-6" target="hAhiAMXTHetI9m2DxHTK-8">
          <mxGeometry relative="1" as="geometry" />
        </mxCell>
        <mxCell id="hAhiAMXTHetI9m2DxHTK-6" value="&lt;font style=&quot;font-size: 20px;&quot;&gt;cin &amp;gt;&amp;gt;&amp;nbsp; r &amp;gt;&amp;gt; h&lt;/font&gt;" style="shape=parallelogram;perimeter=parallelogramPerimeter;whiteSpace=wrap;html=1;fixedSize=1;" vertex="1" parent="1">
          <mxGeometry x="335" y="560" width="170" height="60" as="geometry" />
        </mxCell>
        <mxCell id="hAhiAMXTHetI9m2DxHTK-11" value="" style="edgeStyle=orthogonalEdgeStyle;rounded=0;orthogonalLoop=1;jettySize=auto;html=1;" edge="1" parent="1" source="hAhiAMXTHetI9m2DxHTK-8" target="hAhiAMXTHetI9m2DxHTK-10">
          <mxGeometry relative="1" as="geometry" />
        </mxCell>
        <mxCell id="hAhiAMXTHetI9m2DxHTK-8" value="&lt;div style=&quot;font-family: Consolas, &amp;quot;Courier New&amp;quot;, monospace; font-weight: normal; font-size: 20px; line-height: 19px; white-space: pre;&quot;&gt;&lt;div style=&quot;&quot;&gt;S=(4*M_PI*pow(r,2))+(2*M_PI*r*(h-2*r))&lt;/div&gt;&lt;/div&gt;" style="whiteSpace=wrap;html=1;" vertex="1" parent="1">
          <mxGeometry x="195" y="690" width="450" height="60" as="geometry" />
        </mxCell>
        <mxCell id="hAhiAMXTHetI9m2DxHTK-13" value="" style="edgeStyle=orthogonalEdgeStyle;rounded=0;orthogonalLoop=1;jettySize=auto;html=1;" edge="1" parent="1" source="hAhiAMXTHetI9m2DxHTK-10" target="hAhiAMXTHetI9m2DxHTK-12">
          <mxGeometry relative="1" as="geometry" />
        </mxCell>
        <mxCell id="hAhiAMXTHetI9m2DxHTK-10" value="&lt;div style=&quot;font-family: Consolas, &amp;quot;Courier New&amp;quot;, monospace; font-weight: normal; font-size: 20px; line-height: 19px; white-space: pre;&quot;&gt;&lt;div style=&quot;&quot;&gt;&lt;div style=&quot;line-height: 19px;&quot;&gt;V=((4.0/3)*M_PI*pow(r,3))+(M_PI*pow(r,2)*(h-2*r))&lt;/div&gt;&lt;/div&gt;&lt;/div&gt;" style="whiteSpace=wrap;html=1;" vertex="1" parent="1">
          <mxGeometry x="142" y="830" width="555" height="60" as="geometry" />
        </mxCell>
        <mxCell id="hAhiAMXTHetI9m2DxHTK-17" value="" style="edgeStyle=orthogonalEdgeStyle;rounded=0;orthogonalLoop=1;jettySize=auto;html=1;" edge="1" parent="1" source="hAhiAMXTHetI9m2DxHTK-12" target="hAhiAMXTHetI9m2DxHTK-16">
          <mxGeometry relative="1" as="geometry" />
        </mxCell>
        <mxCell id="hAhiAMXTHetI9m2DxHTK-12" value="&lt;font style=&quot;font-size: 20px;&quot;&gt;cout &amp;lt;&amp;lt; V &amp;lt;&amp;lt; &quot; &quot;&lt;/font&gt;" style="shape=parallelogram;perimeter=parallelogramPerimeter;whiteSpace=wrap;html=1;fixedSize=1;" vertex="1" parent="1">
          <mxGeometry x="334.5" y="970" width="170.5" height="60" as="geometry" />
        </mxCell>
        <mxCell id="hAhiAMXTHetI9m2DxHTK-19" value="" style="edgeStyle=orthogonalEdgeStyle;rounded=0;orthogonalLoop=1;jettySize=auto;html=1;" edge="1" parent="1" source="hAhiAMXTHetI9m2DxHTK-16" target="hAhiAMXTHetI9m2DxHTK-18">
          <mxGeometry relative="1" as="geometry" />
        </mxCell>
        <mxCell id="hAhiAMXTHetI9m2DxHTK-16" value="&lt;font style=&quot;font-size: 20px;&quot;&gt;cout &amp;lt;&amp;lt; S&lt;/font&gt;" style="shape=parallelogram;perimeter=parallelogramPerimeter;whiteSpace=wrap;html=1;fixedSize=1;" vertex="1" parent="1">
          <mxGeometry x="334.5" y="1110" width="170.5" height="60" as="geometry" />
        </mxCell>
        <mxCell id="hAhiAMXTHetI9m2DxHTK-18" value="&lt;font style=&quot;font-size: 20px;&quot;&gt;end&lt;/font&gt;" style="ellipse;whiteSpace=wrap;html=1;" vertex="1" parent="1">
          <mxGeometry x="379.75" y="1240" width="80" height="50" as="geometry" />
        </mxCell>
      </root>
    </mxGraphModel>
  </diagram>
</mxfile>
